<svg xmlns="http://www.w3.org/2000/svg" viewBox="0 0 400 200">
  <defs>
    <linearGradient id="bookshelfGrad" x1="0%" y1="0%" x2="0%" y2="100%">
      <stop offset="0%" style="stop-color:#5D4E37"/>
      <stop offset="100%" style="stop-color:#3D2914"/>
    </linearGradient>
  </defs>
  <rect fill="url(#bookshelfGrad)" width="400" height="200"/>
  <!-- Shelf -->
  <rect fill="#6D4C41" x="0" y="160" width="400" height="8"/>
  <!-- Books -->
  <rect fill="#C62828" x="20" y="80" width="25" height="80"/>
  <rect fill="#1565C0" x="50" y="70" width="20" height="90"/>
  <rect fill="#2E7D32" x="75" y="85" width="22" height="75"/>
  <rect fill="#F9A825" x="100" y="75" width="18" height="85"/>
  <rect fill="#6A1B9A" x="125" y="90" width="25" height="70"/>
  <rect fill="#00838F" x="155" y="65" width="20" height="95"/>
  <rect fill="#D84315" x="180" y="80" width="22" height="80"/>
  <rect fill="#283593" x="210" y="70" width="18" height="90"/>
  <rect fill="#558B2F" x="235" y="85" width="24" height="75"/>
  <rect fill="#AD1457" x="265" y="75" width="20" height="85"/>
  <rect fill="#00695C" x="290" y="90" width="22" height="70"/>
  <rect fill="#E65100" x="318" y="65" width="25" height="95"/>
  <rect fill="#4527A0" x="348" y="80" width="20" height="80"/>
  <rect fill="#1B5E20" x="373" y="70" width="18" height="90"/>
</svg>
