<svg xmlns="http://www.w3.org/2000/svg" viewBox="0 0 400 200">
  <defs>
    <linearGradient id="woodbg" x1="0%" y1="0%" x2="0%" y2="100%">
      <stop offset="0%" style="stop-color:#78350f"/>
      <stop offset="100%" style="stop-color:#451a03"/>
    </linearGradient>
    <linearGradient id="shelflight" x1="0%" y1="0%" x2="0%" y2="100%">
      <stop offset="0%" style="stop-color:#92400e"/>
      <stop offset="100%" style="stop-color:#78350f"/>
    </linearGradient>
  </defs>
  <rect fill="url(#woodbg)" width="400" height="200"/>
  <!-- Wood grain texture -->
  <line x1="0" y1="30" x2="400" y2="30" stroke="#451a03" stroke-width="1" opacity="0.3"/>
  <line x1="0" y1="70" x2="400" y2="70" stroke="#451a03" stroke-width="1" opacity="0.3"/>
  <line x1="0" y1="110" x2="400" y2="110" stroke="#451a03" stroke-width="1" opacity="0.3"/>
  <!-- Shelf -->
  <rect fill="url(#shelflight)" x="0" y="155" width="400" height="10"/>
  <rect fill="#451a03" x="0" y="165" width="400" height="3"/>
  <!-- Books row -->
  <rect fill="#dc2626" x="15" y="70" width="22" height="85" rx="1"/>
  <rect fill="#fef2f2" x="17" y="72" width="18" height="2"/>
  <rect fill="#1d4ed8" x="42" y="60" width="18" height="95" rx="1"/>
  <rect fill="#dbeafe" x="44" y="62" width="14" height="2"/>
  <rect fill="#16a34a" x="65" y="75" width="25" height="80" rx="1"/>
  <rect fill="#dcfce7" x="67" y="77" width="21" height="2"/>
  <rect fill="#eab308" x="95" y="65" width="16" height="90" rx="1"/>
  <rect fill="#7c3aed" x="116" y="80" width="28" height="75" rx="1"/>
  <rect fill="#ede9fe" x="118" y="82" width="24" height="2"/>
  <rect fill="#0891b2" x="150" y="55" width="20" height="100" rx="1"/>
  <rect fill="#cffafe" x="152" y="57" width="16" height="2"/>
  <rect fill="#ea580c" x="175" y="70" width="24" height="85" rx="1"/>
  <rect fill="#1e40af" x="205" y="60" width="18" height="95" rx="1"/>
  <rect fill="#15803d" x="228" y="78" width="26" height="77" rx="1"/>
  <rect fill="#be185d" x="260" y="68" width="20" height="87" rx="1"/>
  <rect fill="#fce7f3" x="262" y="70" width="16" height="2"/>
  <rect fill="#0d9488" x="285" y="82" width="22" height="73" rx="1"/>
  <rect fill="#c2410c" x="312" y="58" width="25" height="97" rx="1"/>
  <rect fill="#fed7aa" x="314" y="60" width="21" height="2"/>
  <rect fill="#6d28d9" x="342" y="72" width="18" height="83" rx="1"/>
  <rect fill="#166534" x="365" y="62" width="22" height="93" rx="1"/>
  <!-- Ambient light -->
  <rect fill="#fef3c7" x="0" y="0" width="400" height="50" opacity="0.1"/>
</svg>
